<svg xmlns="http://www.w3.org/2000/svg" viewBox="107.82 0 221.48 811.38" fill="none">
  <!-- eldee wordmark VERTIKÁL — varianta V-C (finál 2026-06-13). LIGHT — na tmavá pozadí. -->
  <!-- Svisle e–LD–e–e. LD + svatozář = master monogram v2.1 (translate 63.5 129.46), spára 25 j. průhledná. -->
  <!-- Střed dvojpísmene LD na ose x=210 (L a D symetricky). Rozestupy ~16 j. = jako vodorovný nápis. Glyf e fs 258. -->
  <defs>
    <mask id="wmv-ko-light" maskUnits="userSpaceOnUse" x="-300" y="-300" width="1400" height="1400">
      <rect x="-300" y="-300" width="1400" height="1400" fill="white"/>
      <path d="M56.32 285.00V78.60H95.02V250.94H145.85V285.00Z" fill="black" stroke="black" stroke-width="25" stroke-linejoin="round"/>
    </mask>
  </defs>
  <path d="M149.02 402.58L149.02 402.58Q122.57 402.58 110.45 391.87Q98.32 381.17 96.9 356.66L96.9 356.66Q96.64 352.27 96.51 343.18Q96.39 334.08 96.39 323.37Q96.39 312.67 96.51 303.25Q96.64 293.83 96.9 289.06L96.9 289.06Q98.71 264.03 110.64 253.33Q122.57 242.62 148.5 242.62L148.5 242.62Q174.43 242.62 186.17 253.07Q197.91 263.52 199.07 287.51L199.07 287.51Q199.2 290.35 199.26 297.51Q199.33 304.67 199.26 313.25Q199.2 321.83 198.81 329.05L198.81 329.05L135.09 329.05Q135.09 337.31 135.28 345.37Q135.47 353.43 135.6 360.78L135.6 360.78Q135.86 367.75 138.95 370.72Q142.05 373.68 149.02 373.68L149.02 373.68Q155.21 373.68 157.98 370.72Q160.76 367.75 161.14 360.78L161.14 360.78Q161.4 357.69 161.4 352.14Q161.4 346.59 161.14 339.89L161.14 339.89L198.81 339.89Q199.07 341.18 199.2 346.79Q199.33 352.4 199.07 356.66L199.07 356.66Q197.91 381.17 186.23 391.87Q174.56 402.58 149.02 402.58M135.09 302.48L135.09 302.48L161.4 302.48Q161.4 297.83 161.34 293.7Q161.27 289.58 161.21 286.74Q161.14 283.9 161.14 283.13L161.14 283.13Q160.76 276.93 157.85 274.23Q154.95 271.52 148.5 271.52L148.5 271.52Q141.79 271.52 138.83 274.23Q135.86 276.93 135.6 283.13L135.6 283.13Q135.47 287.77 135.41 292.61Q135.34 297.45 135.09 302.48" fill="#F5F5F0" transform="translate(62.14,-230.62)"/>
  <g transform="translate(63.5,129.46)">
    <path d="M128.32 318.00V111.60H180.69Q209.72 111.60 222.68 123.92Q235.65 136.24 236.16 164.49Q236.55 182.42 236.68 198.55Q236.81 214.67 236.68 230.80Q236.55 246.92 236.16 264.85Q235.65 293.23 222.68 305.62Q209.72 318.00 180.69 318.00ZM167.02 283.94H180.69Q188.82 283.94 193.08 280.20Q197.34 276.46 197.46 269.50Q197.85 255.69 198.04 242.02Q198.24 228.34 198.24 214.67Q198.24 201.00 198.04 187.26Q197.85 173.52 197.46 159.85Q197.34 153.01 193.08 149.33Q188.82 145.66 180.69 145.66H167.02Z" fill="#F5F5F0" mask="url(#wmv-ko-light)"/>
    <path d="M56.32 285.00V78.60H95.02V250.94H145.85V285.00Z" fill="#F5F5F0"/>
    <ellipse cx="182.3" cy="77" rx="66" ry="13" stroke="#C9A227" stroke-width="11" fill="none"/>
  </g>
  <path d="M149.02 402.58L149.02 402.58Q122.57 402.58 110.45 391.87Q98.32 381.17 96.9 356.66L96.9 356.66Q96.64 352.27 96.51 343.18Q96.39 334.08 96.39 323.37Q96.39 312.67 96.51 303.25Q96.64 293.83 96.9 289.06L96.9 289.06Q98.71 264.03 110.64 253.33Q122.57 242.62 148.5 242.62L148.5 242.62Q174.43 242.62 186.17 253.07Q197.91 263.52 199.07 287.51L199.07 287.51Q199.2 290.35 199.26 297.51Q199.33 304.67 199.26 313.25Q199.2 321.83 198.81 329.05L198.81 329.05L135.09 329.05Q135.09 337.31 135.28 345.37Q135.47 353.43 135.6 360.78L135.6 360.78Q135.86 367.75 138.95 370.72Q142.05 373.68 149.02 373.68L149.02 373.68Q155.21 373.68 157.98 370.72Q160.76 367.75 161.14 360.78L161.14 360.78Q161.4 357.69 161.4 352.14Q161.4 346.59 161.14 339.89L161.14 339.89L198.81 339.89Q199.07 341.18 199.2 346.79Q199.33 352.4 199.07 356.66L199.07 356.66Q197.91 381.17 186.23 391.87Q174.56 402.58 149.02 402.58M135.09 302.48L135.09 302.48L161.4 302.48Q161.4 297.83 161.34 293.7Q161.27 289.58 161.21 286.74Q161.14 283.9 161.14 283.13L161.14 283.13Q160.76 276.93 157.85 274.23Q154.95 271.52 148.5 271.52L148.5 271.52Q141.79 271.52 138.83 274.23Q135.86 276.93 135.6 283.13L135.6 283.13Q135.47 287.77 135.41 292.61Q135.34 297.45 135.09 302.48" fill="#F5F5F0" transform="translate(62.14,220.84)"/>
  <path d="M149.02 402.58L149.02 402.58Q122.57 402.58 110.45 391.87Q98.32 381.17 96.9 356.66L96.9 356.66Q96.64 352.27 96.51 343.18Q96.39 334.08 96.39 323.37Q96.39 312.67 96.51 303.25Q96.64 293.83 96.9 289.06L96.9 289.06Q98.71 264.03 110.64 253.33Q122.57 242.62 148.5 242.62L148.5 242.62Q174.43 242.62 186.17 253.07Q197.91 263.52 199.07 287.51L199.07 287.51Q199.2 290.35 199.26 297.51Q199.33 304.67 199.26 313.25Q199.2 321.83 198.81 329.05L198.81 329.05L135.09 329.05Q135.09 337.31 135.28 345.37Q135.47 353.43 135.6 360.78L135.6 360.78Q135.86 367.75 138.95 370.72Q142.05 373.68 149.02 373.68L149.02 373.68Q155.21 373.68 157.98 370.72Q160.76 367.75 161.14 360.78L161.14 360.78Q161.4 357.69 161.4 352.14Q161.4 346.59 161.14 339.89L161.14 339.89L198.81 339.89Q199.07 341.18 199.2 346.79Q199.33 352.4 199.07 356.66L199.07 356.66Q197.91 381.17 186.23 391.87Q174.56 402.58 149.02 402.58M135.09 302.48L135.09 302.48L161.4 302.48Q161.4 297.83 161.34 293.7Q161.27 289.58 161.21 286.74Q161.14 283.9 161.14 283.13L161.14 283.13Q160.76 276.93 157.85 274.23Q154.95 271.52 148.5 271.52L148.5 271.52Q141.79 271.52 138.83 274.23Q135.86 276.93 135.6 283.13L135.6 283.13Q135.47 287.77 135.41 292.61Q135.34 297.45 135.09 302.48" fill="#F5F5F0" transform="translate(62.14,396.8)"/>
</svg>