<svg xmlns="http://www.w3.org/2000/svg" viewBox="84.4 180.9 563.4 283.5" fill="none">
  <!-- eldee wordmark v2 — lockup L3 (finál 2026-06-06). LIGHT — na tmavá pozadí. -->
  <!-- 5 glyfů Big Shoulders Display Black fs 258, path-based. LD + svatozář = master monogram v2.1 (translate +160.4 +134.4), spára 25 j. průhledná, D podsedá 52,4 j. pod baseline e, blok LD+halo v ose e (y 322,6). -->
  <!-- Maska v souřadnicích monogramu — aplikuje se na D uvnitř translate skupiny (userSpaceOnUse = lokální prostor). -->
  <defs>
    <mask id="wm-ko-light" maskUnits="userSpaceOnUse" x="-300" y="-300" width="1400" height="1400">
      <rect x="-300" y="-300" width="1400" height="1400" fill="white"/>
      <path d="M56.32 285.00V78.60H95.02V250.94H145.85V285.00Z" fill="black" stroke="black" stroke-width="25" stroke-linejoin="round"/>
    </mask>
  </defs>
  <path d="M149.02 402.58L149.02 402.58Q122.57 402.58 110.45 391.87Q98.32 381.17 96.9 356.66L96.9 356.66Q96.64 352.27 96.51 343.18Q96.39 334.08 96.39 323.37Q96.39 312.67 96.51 303.25Q96.64 293.83 96.9 289.06L96.9 289.06Q98.71 264.03 110.64 253.33Q122.57 242.62 148.5 242.62L148.5 242.62Q174.43 242.62 186.17 253.07Q197.91 263.52 199.07 287.51L199.07 287.51Q199.2 290.35 199.26 297.51Q199.33 304.67 199.26 313.25Q199.2 321.83 198.81 329.05L198.81 329.05L135.09 329.05Q135.09 337.31 135.28 345.37Q135.47 353.43 135.6 360.78L135.6 360.78Q135.86 367.75 138.95 370.72Q142.05 373.68 149.02 373.68L149.02 373.68Q155.21 373.68 157.98 370.72Q160.76 367.75 161.14 360.78L161.14 360.78Q161.4 357.69 161.4 352.14Q161.4 346.59 161.14 339.89L161.14 339.89L198.81 339.89Q199.07 341.18 199.2 346.79Q199.33 352.4 199.07 356.66L199.07 356.66Q197.91 381.17 186.23 391.87Q174.56 402.58 149.02 402.58M135.09 302.48L135.09 302.48L161.4 302.48Q161.4 297.83 161.34 293.7Q161.27 289.58 161.21 286.74Q161.14 283.9 161.14 283.13L161.14 283.13Q160.76 276.93 157.85 274.23Q154.95 271.52 148.5 271.52L148.5 271.52Q141.79 271.52 138.83 274.23Q135.86 276.93 135.6 283.13L135.6 283.13Q135.47 287.77 135.41 292.61Q135.34 297.45 135.09 302.48" fill="#F5F5F0"/>
  <path d="M467.12 402.58L467.12 402.58Q440.67 402.58 428.55 391.87Q416.42 381.17 415 356.66L415 356.66Q414.74 352.27 414.61 343.18Q414.49 334.08 414.49 323.37Q414.49 312.67 414.61 303.25Q414.74 293.83 415 289.06L415 289.06Q416.81 264.03 428.74 253.33Q440.67 242.62 466.6 242.62L466.6 242.62Q492.53 242.62 504.27 253.07Q516.01 263.52 517.17 287.51L517.17 287.51Q517.3 290.35 517.36 297.51Q517.43 304.67 517.36 313.25Q517.3 321.83 516.91 329.05L516.91 329.05L453.19 329.05Q453.19 337.31 453.38 345.37Q453.57 353.43 453.7 360.78L453.7 360.78Q453.96 367.75 457.06 370.72Q460.15 373.68 467.12 373.68L467.12 373.68Q473.31 373.68 476.08 370.72Q478.86 367.75 479.24 360.78L479.24 360.78Q479.5 357.69 479.5 352.14Q479.5 346.59 479.24 339.89L479.24 339.89L516.91 339.89Q517.17 341.18 517.3 346.79Q517.43 352.4 517.17 356.66L517.17 356.66Q516.01 381.17 504.33 391.87Q492.66 402.58 467.12 402.58M453.19 302.48L453.19 302.48L479.5 302.48Q479.5 297.83 479.44 293.7Q479.37 289.58 479.31 286.74Q479.24 283.9 479.24 283.13L479.24 283.13Q478.86 276.93 475.95 274.23Q473.05 271.52 466.6 271.52L466.6 271.52Q459.89 271.52 456.93 274.23Q453.96 276.93 453.7 283.13L453.7 283.13Q453.57 287.77 453.51 292.61Q453.44 297.45 453.19 302.48" fill="#F5F5F0"/>
  <path d="M585.52 402.58L585.52 402.58Q559.07 402.58 546.95 391.87Q534.82 381.17 533.4 356.66L533.4 356.66Q533.14 352.27 533.01 343.18Q532.89 334.08 532.89 323.37Q532.89 312.67 533.01 303.25Q533.14 293.83 533.4 289.06L533.4 289.06Q535.21 264.03 547.14 253.33Q559.07 242.62 585 242.62L585 242.62Q610.93 242.62 622.67 253.07Q634.41 263.52 635.57 287.51L635.57 287.51Q635.7 290.35 635.76 297.51Q635.83 304.67 635.76 313.25Q635.7 321.83 635.31 329.05L635.31 329.05L571.59 329.05Q571.59 337.31 571.78 345.37Q571.97 353.43 572.1 360.78L572.1 360.78Q572.36 367.75 575.46 370.72Q578.55 373.68 585.52 373.68L585.52 373.68Q591.71 373.68 594.48 370.72Q597.26 367.75 597.64 360.78L597.64 360.78Q597.9 357.69 597.9 352.14Q597.9 346.59 597.64 339.89L597.64 339.89L635.31 339.89Q635.57 341.18 635.7 346.79Q635.83 352.4 635.57 356.66L635.57 356.66Q634.41 381.17 622.73 391.87Q611.06 402.58 585.52 402.58M571.59 302.48L571.59 302.48L597.9 302.48Q597.9 297.83 597.84 293.7Q597.77 289.58 597.71 286.74Q597.64 283.9 597.64 283.13L597.64 283.13Q597.26 276.93 594.35 274.23Q591.45 271.52 585 271.52L585 271.52Q578.29 271.52 575.33 274.23Q572.36 276.93 572.1 283.13L572.1 283.13Q571.97 287.77 571.91 292.61Q571.84 297.45 571.59 302.48" fill="#F5F5F0"/>
  <g transform="translate(160.4,134.4)">
    <path d="M128.32 318.00V111.60H180.69Q209.72 111.60 222.68 123.92Q235.65 136.24 236.16 164.49Q236.55 182.42 236.68 198.55Q236.81 214.67 236.68 230.80Q236.55 246.92 236.16 264.85Q235.65 293.23 222.68 305.62Q209.72 318.00 180.69 318.00ZM167.02 283.94H180.69Q188.82 283.94 193.08 280.20Q197.34 276.46 197.46 269.50Q197.85 255.69 198.04 242.02Q198.24 228.34 198.24 214.67Q198.24 201.00 198.04 187.26Q197.85 173.52 197.46 159.85Q197.34 153.01 193.08 149.33Q188.82 145.66 180.69 145.66H167.02Z" fill="#F5F5F0" mask="url(#wm-ko-light)"/>
    <path d="M56.32 285.00V78.60H95.02V250.94H145.85V285.00Z" fill="#F5F5F0"/>
    <ellipse cx="182.3" cy="77" rx="66" ry="13" stroke="#C9A227" stroke-width="11" fill="none"/>
  </g>
</svg>