<svg xmlns="http://www.w3.org/2000/svg" viewBox="3.2 46.0 301.5 301.5" fill="none" color="#F5F5F0">
  <!-- eldee LD monogram v2.0 — EMBROIDERY/MONO (na vyšití, jednobarevné currentColor). Kompozice N2. -->
  <!-- Rozdíly proti brand (při nášivce 35 mm): L o 10 j. doleva, knockout spára 25 j. (1,8 mm), -->
  <!-- svatozář plochý prsten ry 13 / tah 11 j. (1,6 mm, vnitřní otvor 2,2 mm). SVG nikdy přímo do vyšívárny — digitizér + sew-out. -->
  <defs>
    <mask id="ld-knockout-mono" maskUnits="userSpaceOnUse" x="3.2" y="46" width="301.5" height="301.5">
      <rect x="3.2" y="46" width="301.5" height="301.5" fill="white"/>
      <path d="M56.32 285.00V78.60H95.02V250.94H145.85V285.00Z" fill="black" stroke="black" stroke-width="25" stroke-linejoin="round"/>
    </mask>
  </defs>
  <path d="M128.32 318.00V111.60H180.69Q209.72 111.60 222.68 123.92Q235.65 136.24 236.16 164.49Q236.55 182.42 236.68 198.55Q236.81 214.67 236.68 230.80Q236.55 246.92 236.16 264.85Q235.65 293.23 222.68 305.62Q209.72 318.00 180.69 318.00ZM167.02 283.94H180.69Q188.82 283.94 193.08 280.20Q197.34 276.46 197.46 269.50Q197.85 255.69 198.04 242.02Q198.24 228.34 198.24 214.67Q198.24 201.00 198.04 187.26Q197.85 173.52 197.46 159.85Q197.34 153.01 193.08 149.33Q188.82 145.66 180.69 145.66H167.02Z" fill="currentColor" mask="url(#ld-knockout-mono)"/>
  <path d="M56.32 285.00V78.60H95.02V250.94H145.85V285.00Z" fill="currentColor"/>
  <ellipse cx="182.3" cy="77" rx="66" ry="13" stroke="currentColor" stroke-width="11"/>
</svg>
