<svg xmlns="http://www.w3.org/2000/svg" viewBox="3.2 46.0 301.5 301.5" fill="none" color="#F5F5F0">
  <!-- eldee LD monogram v2.1 — JEDNOTNÝ MASTER, embroidery-first (rozhodnutí 2026-06-06). Kompozice N2, path-based (Big Shoulders Display Black, fs 258). -->
  <!-- Interlock: L proniká D, knockout spára 25 j. = PRŮHLEDNÁ (mask) — čitelné na světlém i tmavém. Písmena currentColor. -->
  <!-- Svatozář: zlatý prsten (cy 77 · rx 66 · ry 13 · tah 11). Tatáž geometrie platí pro digitál i výšivku (do vyšívárny přes digitizéra, nikdy SVG přímo). -->
  <defs>
    <mask id="ld-knockout-brand" maskUnits="userSpaceOnUse" x="3.2" y="46" width="301.5" height="301.5">
      <rect x="3.2" y="46" width="301.5" height="301.5" fill="white"/>
      <path d="M56.32 285.00V78.60H95.02V250.94H145.85V285.00Z" fill="black" stroke="black" stroke-width="25" stroke-linejoin="round"/>
    </mask>
  </defs>
  <path d="M128.32 318.00V111.60H180.69Q209.72 111.60 222.68 123.92Q235.65 136.24 236.16 164.49Q236.55 182.42 236.68 198.55Q236.81 214.67 236.68 230.80Q236.55 246.92 236.16 264.85Q235.65 293.23 222.68 305.62Q209.72 318.00 180.69 318.00ZM167.02 283.94H180.69Q188.82 283.94 193.08 280.20Q197.34 276.46 197.46 269.50Q197.85 255.69 198.04 242.02Q198.24 228.34 198.24 214.67Q198.24 201.00 198.04 187.26Q197.85 173.52 197.46 159.85Q197.34 153.01 193.08 149.33Q188.82 145.66 180.69 145.66H167.02Z" fill="currentColor" mask="url(#ld-knockout-brand)"/>
  <path d="M56.32 285.00V78.60H95.02V250.94H145.85V285.00Z" fill="currentColor"/>
  <ellipse cx="182.3" cy="77" rx="66" ry="13" stroke="#C9A227" stroke-width="11"/>
</svg>
